<svg xmlns="http://www.w3.org/2000/svg" width="960" height="600" viewBox="0 0 960 600" role="img" aria-labelledby="title desc">
  <title id="title">Headspace app dashboard mock interface</title>
  <desc id="desc">Stylized illustration of the Headspace mobile app dashboard highlighting recommendation cards and navigation tabs.</desc>
  <defs>
    <linearGradient id="bg" x1="0%" y1="0%" x2="100%" y2="100%">
      <stop offset="0%" stop-color="#ffb27b"/>
      <stop offset="100%" stop-color="#ff6f1f"/>
    </linearGradient>
    <linearGradient id="card" x1="0%" y1="0%" x2="100%" y2="100%">
      <stop offset="0%" stop-color="#fff7f0"/>
      <stop offset="100%" stop-color="#f2f6ff"/>
    </linearGradient>
    <filter id="shadow" x="-10%" y="-10%" width="130%" height="130%">
      <feDropShadow dx="0" dy="12" stdDeviation="18" flood-color="rgba(12,25,47,0.25)"/>
    </filter>
  </defs>
  <rect width="960" height="600" fill="#fff7f0"/>
  <rect x="200" y="20" width="560" height="560" rx="48" fill="url(#bg)" filter="url(#shadow)"/>
  <rect x="240" y="80" width="480" height="120" rx="24" fill="#fff" opacity="0.4"/>
  <rect x="240" y="240" width="480" height="280" rx="32" fill="#fff"/>
  <rect x="276" y="260" width="408" height="96" rx="18" fill="url(#card)"/>
  <rect x="276" y="372" width="188" height="120" rx="18" fill="url(#card)"/>
  <rect x="496" y="372" width="188" height="120" rx="18" fill="url(#card)"/>
  <rect x="340" y="108" width="280" height="20" rx="10" fill="#fff"/>
  <rect x="340" y="144" width="180" height="20" rx="10" fill="#fff" opacity="0.6"/>
  <circle cx="300" cy="128" r="32" fill="#fff"/>
  <rect x="292" y="120" width="16" height="16" rx="8" fill="#ff6f1f"/>
  <rect x="316" y="120" width="16" height="16" rx="8" fill="#ff9f50"/>
  <rect x="276" y="492" width="408" height="20" rx="10" fill="#d7ddff"/>
  <rect x="276" y="524" width="88" height="20" rx="10" fill="#2447d6"/>
  <g fill="#1f2b43" opacity="0.75">
    <rect x="300" y="284" width="220" height="16" rx="8"/>
    <rect x="300" y="312" width="308" height="12" rx="6"/>
    <rect x="300" y="336" width="240" height="12" rx="6" opacity="0.7"/>
  </g>
  <g fill="#1f2b43" opacity="0.7">
    <rect x="300" y="392" width="120" height="14" rx="7"/>
    <rect x="300" y="416" width="140" height="10" rx="5"/>
    <rect x="520" y="392" width="120" height="14" rx="7"/>
    <rect x="520" y="416" width="140" height="10" rx="5"/>
  </g>
  <g fill="#2447d6" opacity="0.55">
    <rect x="320" y="440" width="40" height="10" rx="5"/>
    <rect x="540" y="440" width="40" height="10" rx="5"/>
  </g>
  <rect x="300" y="536" width="32" height="32" rx="16" fill="#2447d6"/>
  <rect x="356" y="536" width="32" height="32" rx="16" fill="#1f6f3d"/>
  <rect x="412" y="536" width="32" height="32" rx="16" fill="#ff6f1f"/>
  <rect x="468" y="536" width="32" height="32" rx="16" fill="#fff" opacity="0.4"/>
  <rect x="524" y="536" width="32" height="32" rx="16" fill="#fff" opacity="0.2"/>
</svg>
